<svg width="44" height="44" viewBox="0 0 44 44" fill="none" xmlns="http://www.w3.org/2000/svg">
<path d="M14 16.6666V16.6666C14 15.4393 14.9949 14.4444 16.2222 14.4444L28.4762 14.4444C28.6016 14.4444 28.6643 14.4444 28.7163 14.4556C28.9085 14.497 29.0586 14.6471 29.0999 14.8392C29.1111 14.8912 29.1111 14.9539 29.1111 15.0793V15.0793C29.1111 15.8318 29.1111 16.208 29.044 16.5199C28.7959 17.673 27.8952 18.5737 26.7422 18.8217C26.4302 18.8889 26.054 18.8889 25.3016 18.8889H24.6667M14 16.6666V16.6666C14 17.8939 14.9949 18.8889 16.2222 18.8889H28C28.9428 18.8889 29.4142 18.8889 29.7071 19.1818C30 19.4747 30 19.9461 30 20.8889L30 22.4444M14 16.6666L14 25.5555C14 27.4412 14 28.384 14.5858 28.9698C15.1716 29.5555 16.1144 29.5555 18 29.5555L28 29.5555C28.9428 29.5555 29.4142 29.5555 29.7071 29.2626C30 28.9698 30 28.4984 30 27.5555L30 26M30 26H26.4444C25.7157 26 25.3514 26 25.0931 25.8191C24.9975 25.7522 24.9144 25.6691 24.8475 25.5736C24.6667 25.3153 24.6667 24.9509 24.6667 24.2222V24.2222C24.6667 23.4935 24.6667 23.1291 24.8475 22.8709C24.9144 22.7753 24.9975 22.6922 25.0931 22.6253C25.3514 22.4444 25.7157 22.4444 26.4444 22.4444H30M30 26L30 22.4444" stroke="#7B7C7E" stroke-width="2"/>
</svg>
