<svg width="40" height="40" viewBox="0 0 40 40" fill="none" xmlns="http://www.w3.org/2000/svg">
<path d="M14 24.4445H17.3333C18.8061 24.4445 20 25.6384 20 27.1111V18.8889C20 16.0605 20 14.6463 19.1213 13.7676C18.2426 12.8889 16.8284 12.8889 14 12.8889C13.0572 12.8889 12.5858 12.8889 12.2929 13.1818C12 13.4747 12 13.9461 12 14.8889V22.4445C12 23.3873 12 23.8587 12.2929 24.1516C12.5858 24.4445 13.0572 24.4445 14 24.4445Z" stroke="#7B7C7E" stroke-width="2"/>
<path d="M26 24.4445H22.6667C21.1939 24.4445 20 25.6384 20 27.1111V18.8889C20 16.0605 20 14.6463 20.8787 13.7676C21.7574 12.8889 23.1716 12.8889 26 12.8889C26.9428 12.8889 27.4142 12.8889 27.7071 13.1818C28 13.4747 28 13.9461 28 14.8889V22.4445C28 23.3873 28 23.8587 27.7071 24.1516C27.4142 24.4445 26.9428 24.4445 26 24.4445Z" stroke="#7B7C7E" stroke-width="2"/>
</svg>
