<svg width="18" height="16" viewBox="0 0 18 16" fill="none" xmlns="http://www.w3.org/2000/svg">
<path d="M2.66461 5.08007L3.76615 7.00776C4.043 7.49224 4.18142 7.73448 4.18142 8.00004C4.18142 8.26561 4.043 8.50784 3.76616 8.99232L2.66461 10.92C1.42631 13.087 0.807159 14.1706 1.28998 14.7079C1.77281 15.2452 2.91612 14.745 5.20274 13.7446L14.145 9.83236C15.9405 9.04682 16.8383 8.65406 16.8383 8.00004C16.8383 7.34603 15.9405 6.95326 14.145 6.16773L5.20274 2.25548C2.91612 1.25508 1.77281 0.754882 1.28998 1.2922C0.807159 1.82952 1.42631 2.91304 2.66461 5.08007Z" stroke="#AEB1DD" stroke-width="2"/>
</svg>
